<svg width="24" height="24" viewBox="0 0 24 24" fill="none" xmlns="http://www.w3.org/2000/svg">
<path d="M16.7523 10.535C17.5872 10.6624 18.1651 11.0446 18.4862 11.5541C18.8073 12.0637 19 12.9554 19 14.1019C19 16.3949 18.2936 18.3057 16.8807 19.7707C15.4679 21.2357 13.6697 22 11.4862 22C10.6514 22 9.81651 21.8726 8.98165 21.5541C8.14679 21.2357 7.50459 20.7898 6.92661 20.2803C6.2844 19.707 5.77064 19.0064 5.44954 18.3694C5.19266 17.6688 5 16.9682 5 16.2675C5 15.5032 5.19266 14.8662 5.51376 14.4204C5.83486 13.9745 6.41284 13.7197 7.11927 13.5287C6.99083 13.2102 6.86239 12.9554 6.79816 12.7006C6.73394 12.5096 6.66972 12.3185 6.66972 12.1911C6.66972 11.8089 6.86239 11.3631 7.31193 10.9172C7.76147 10.4713 8.14679 10.2803 8.53211 10.2803C8.72477 10.2803 8.85321 10.2803 9.04587 10.3439C9.23853 10.4076 9.43119 10.4713 9.68807 10.6624C9.11009 8.75159 8.53211 7.15924 8.21101 6.07643C7.88991 4.99363 7.76147 4.29299 7.76147 3.84713C7.76147 3.27389 7.88991 2.82803 8.21101 2.50955C8.46789 2.19108 8.91743 2 9.43119 2C10.2661 2 11.3578 3.91083 12.7064 7.79618C12.9633 8.43312 13.0917 8.94267 13.2202 9.32484C13.3486 9.07006 13.4771 8.6242 13.6697 8.11465C15.0183 4.29299 16.1743 2.38217 17.0734 2.38217C17.5229 2.38217 17.9083 2.50955 18.2294 2.82803C18.4862 3.1465 18.6789 3.59236 18.6789 4.10191C18.6789 4.48408 18.5505 5.24841 18.2294 6.33121C17.844 7.41401 17.3945 8.81529 16.7523 10.535ZM6.86239 16.1401C6.99083 16.2675 7.18349 16.5223 7.37615 16.8408C7.95413 17.6688 8.53211 18.1147 9.04587 18.1147C9.23853 18.1147 9.36697 18.051 9.49541 17.9236C9.62385 17.7962 9.68807 17.6688 9.68807 17.6051C9.68807 17.4777 9.62385 17.2229 9.43119 16.9045C9.23853 16.586 8.98165 16.2038 8.66055 15.8217C8.27523 15.3758 7.95413 14.9936 7.76147 14.8025C7.50459 14.6115 7.31193 14.4841 7.18349 14.4841C6.86239 14.4841 6.54128 14.6752 6.2844 14.9936C6.02752 15.3121 5.89908 15.758 5.89908 16.2038C5.89908 16.586 5.9633 16.9682 6.15596 17.4777C6.34862 17.9236 6.6055 18.4331 6.99083 18.879C7.56881 19.5159 8.21101 20.0892 9.04587 20.4713C9.88073 20.8535 10.7156 21.0446 11.7431 21.0446C13.5413 21.0446 15.0183 20.4076 16.2385 19.0701C17.4587 17.7325 18.0367 16.0764 18.0367 14.0382C18.0367 13.4013 17.9725 12.9554 17.9083 12.5732C17.844 12.1911 17.6514 11.9363 17.4587 11.8089C17.0734 11.4904 16.367 11.2357 15.2752 10.9809C14.1835 10.7261 13.0275 10.5987 11.8716 10.5987C11.5505 10.5987 11.2936 10.6624 11.1651 10.7898C11.0367 10.9172 10.9725 11.1083 10.9725 11.3631C10.9725 12 11.2936 12.4459 12 12.7006C12.7064 12.9554 13.8624 13.1465 15.4037 13.1465H15.9817C16.1101 13.1465 16.2385 13.2102 16.3028 13.2739C16.367 13.4013 16.4312 13.5287 16.4312 13.7197C16.3028 13.8471 15.9817 14.0382 15.4679 14.2293C14.9541 14.4204 14.633 14.6115 14.3761 14.8025C13.7982 15.1847 13.3486 15.6943 13.0275 16.2675C12.7064 16.8408 12.5138 17.3503 12.5138 17.8599C12.5138 18.1783 12.578 18.4968 12.7064 18.9427C12.8349 19.3885 12.8991 19.6433 12.8991 19.707V19.8344V19.9618C12.5138 19.9618 12.1927 19.707 11.9358 19.2611C11.6789 18.8153 11.6147 18.242 11.6147 17.4777V17.3503C11.5505 17.414 11.4862 17.4777 11.422 17.4777C11.3578 17.4777 11.2936 17.5414 11.1651 17.5414H10.9083C10.844 17.5414 10.7798 17.4777 10.6514 17.4777C10.6514 17.6051 10.7156 17.6688 10.7156 17.7962V18.051C10.7156 18.3694 10.5872 18.6879 10.3303 18.9427C10.0734 19.1975 9.75229 19.3248 9.36697 19.3248C8.78899 19.3248 8.21101 19.0701 7.56881 18.4968C6.99083 17.9236 6.66972 17.414 6.66972 16.8408C6.66972 16.7134 6.66972 16.6497 6.73394 16.586C6.73394 16.2675 6.79817 16.2038 6.86239 16.1401ZM11.0367 16.4586C11.1651 16.4586 11.3578 16.3949 11.4862 16.2675C11.6147 16.1401 11.6789 15.949 11.6789 15.8217C11.6789 15.6306 11.5505 15.2484 11.2936 14.6115C11.0367 13.9745 10.7156 13.3376 10.3303 12.7643C10.0734 12.3185 9.75229 11.9363 9.49541 11.7452C9.23853 11.4904 8.98165 11.4268 8.72477 11.4268C8.53211 11.4268 8.33945 11.5541 8.08257 11.8089C7.82569 12.0637 7.76147 12.2548 7.76147 12.5096C7.76147 12.7006 7.88991 13.0828 8.08257 13.5287C8.33945 13.9745 8.59633 14.4204 8.98165 14.9299C9.36697 15.4395 9.75229 15.8853 10.1376 16.2038C10.5229 16.3312 10.7798 16.4586 11.0367 16.4586ZM12.3853 9.8344L10.844 5.56688C10.4587 4.48408 10.2018 3.71975 9.94495 3.40127C9.75229 3.0828 9.55963 2.89172 9.30275 2.89172C9.11009 2.89172 8.98165 2.95541 8.85321 3.0828C8.66055 3.27389 8.59633 3.46497 8.59633 3.71975C8.59633 4.16561 8.78899 4.86624 9.11009 5.88535C9.43119 6.90446 9.94495 8.30573 10.5872 9.96178C10.6514 9.83439 10.7156 9.7707 10.844 9.7707C10.9725 9.70701 11.1009 9.70701 11.2294 9.70701H11.5505C11.7431 9.7707 12 9.7707 12.3853 9.8344ZM13.9266 13.9745C13.5413 13.9745 13.156 13.9108 12.7706 13.8471C12.3853 13.7834 12.0642 13.7197 11.7431 13.5924C11.8716 13.9108 12 14.1656 12.1284 14.4841C12.2569 14.8025 12.3211 15.0573 12.3853 15.3758C12.578 15.121 12.8349 14.8662 13.0917 14.6115C13.4128 14.3567 13.6697 14.1656 13.9266 13.9745ZM15.789 10.2803C16.4312 8.6242 16.8807 7.22293 17.2661 6.14013C17.5872 5.05733 17.7798 4.42038 17.7798 4.16561C17.7798 3.91083 17.7156 3.71975 17.5872 3.52866C17.4587 3.40127 17.3303 3.33758 17.1376 3.33758C16.8807 3.33758 16.6239 3.52866 16.367 3.97452C16.1101 4.42038 15.789 5.05732 15.4679 6.01274L14.055 9.96178L15.789 10.2803Z" fill="#ECD4AB"/>
</svg>
