<svg width="24" height="24" viewBox="0 0 24 24" fill="none" xmlns="http://www.w3.org/2000/svg">
<path d="M10.0007 3.19998C8.4364 3.56262 6.99761 4.33718 5.83358 5.44332C4.66954 6.54946 3.82264 7.94689 3.38072 9.49066C2.93881 11.0344 2.91798 12.6683 3.32039 14.2229C3.72279 15.7774 4.53378 17.196 5.66924 18.3314C6.8047 19.4669 8.22327 20.2779 9.77781 20.6803C11.3323 21.0827 12.9662 21.0619 14.51 20.62C16.0538 20.178 17.4512 19.3311 18.5574 18.1671C19.6635 17.0031 20.4381 15.5643 20.8007 14C20.8007 13.7348 20.6953 13.4804 20.5078 13.2929C20.3203 13.1053 20.0659 13 19.8007 13H13.0007C12.4703 13 11.9616 12.7893 11.5865 12.4142C11.2114 12.0391 11.0007 11.5304 11.0007 11V3.99998C10.9883 3.88151 10.9525 3.76668 10.8953 3.66215C10.8382 3.55763 10.7608 3.46548 10.6678 3.39107C10.5748 3.31665 10.4679 3.26144 10.3534 3.22864C10.2389 3.19584 10.119 3.1861 10.0007 3.19998Z" stroke="#ECD4AB" stroke-width="2" stroke-linecap="round" stroke-linejoin="round"/>
<path d="M15.0007 3.49998C16.2704 3.94707 17.4237 4.67328 18.3755 5.62514C19.3274 6.577 20.0536 7.73026 20.5007 8.99998H16.0007C15.7355 8.99998 15.4811 8.89463 15.2936 8.70709C15.1061 8.51955 15.0007 8.2652 15.0007 7.99998V3.49998Z" stroke="#ECD4AB" stroke-width="2" stroke-linecap="round" stroke-linejoin="round"/>
</svg>
