<svg width="106" height="101" viewBox="0 0 106 101" fill="none" xmlns="http://www.w3.org/2000/svg">
<path d="M56.2099 0H49.6065V26.5706H56.2099V0Z" fill="#C09A6A"/>
<path d="M29.31 5.45708L23.5914 8.77255L36.8214 31.7834L42.54 28.4679L29.31 5.45708Z" fill="#C09A6A"/>
<path d="M8.72946 23.6982L5.42779 29.4407L28.3428 42.726L31.6445 36.9835L8.72946 23.6982Z" fill="#C09A6A"/>
<path d="M77.4723 63.5585L74.1706 69.301L97.0857 82.5863L100.387 76.8438L77.4723 63.5585Z" fill="#C09A6A"/>
<path d="M0 49.8366V56.4675H26.46V49.8366H0Z" fill="#C09A6A"/>
<path d="M79.38 49.813V56.4439H105.84V49.813H79.38Z" fill="#C09A6A"/>
<path d="M5.44205 76.8275L8.74372 82.5701L31.6587 69.2847L28.3571 63.5422L5.44205 76.8275Z" fill="#C09A6A"/>
<path d="M39.6771 91.4653V98.0957L66.1394 98.0879V91.4575L39.6771 91.4653Z" fill="#C09A6A"/>
<path d="M74.1798 36.9755L77.4815 42.7181L100.396 29.4328L97.0948 23.6902L74.1798 36.9755Z" fill="#C09A6A"/>
<path d="M63.2947 28.4692L69.0133 31.7847L82.2433 8.77388L76.5247 5.45841L63.2947 28.4692Z" fill="#C09A6A"/>
<path d="M56.7232 53.1415H49.0932L23.5898 97.4962L29.3298 100.8L52.9198 59.7724L76.5098 100.8L82.2265 97.4962L56.7232 53.1415Z" fill="#C09A6A"/>
</svg>
