<svg width="733" height="101" viewBox="0 0 733 101" fill="none" xmlns="http://www.w3.org/2000/svg">
<path d="M56.2099 0H49.6065V26.5706H56.2099V0Z" fill="url(#paint0_linear_9946_13393)"/>
<path d="M29.31 5.45708L23.5914 8.77255L36.8214 31.7834L42.54 28.4679L29.31 5.45708Z" fill="url(#paint1_linear_9946_13393)"/>
<path d="M8.72946 23.6982L5.42779 29.4407L28.3428 42.726L31.6445 36.9835L8.72946 23.6982Z" fill="url(#paint2_linear_9946_13393)"/>
<path d="M77.4723 63.5585L74.1706 69.301L97.0857 82.5863L100.387 76.8438L77.4723 63.5585Z" fill="url(#paint3_linear_9946_13393)"/>
<path d="M0 49.8366V56.4675H26.46V49.8366H0Z" fill="url(#paint4_linear_9946_13393)"/>
<path d="M79.38 49.813V56.4439H105.84V49.813H79.38Z" fill="url(#paint5_linear_9946_13393)"/>
<path d="M5.44205 76.8275L8.74372 82.5701L31.6587 69.2847L28.3571 63.5422L5.44205 76.8275Z" fill="url(#paint6_linear_9946_13393)"/>
<path d="M39.6771 91.4653V98.0957L66.1394 98.0879V91.4575L39.6771 91.4653Z" fill="url(#paint7_linear_9946_13393)"/>
<path d="M74.1798 36.9755L77.4815 42.7181L100.396 29.4328L97.0948 23.6902L74.1798 36.9755Z" fill="url(#paint8_linear_9946_13393)"/>
<path d="M63.2947 28.4692L69.0133 31.7847L82.2433 8.77388L76.5247 5.45841L63.2947 28.4692Z" fill="url(#paint9_linear_9946_13393)"/>
<path d="M56.7232 53.1415H49.0932L23.5898 97.4962L29.3298 100.8L52.9198 59.7724L76.5098 100.8L82.2265 97.4962L56.7232 53.1415Z" fill="url(#paint10_linear_9946_13393)"/>
<path d="M696.396 59.2711H701.922C702.075 61.4499 702.714 63.3953 703.84 65.1073C704.965 66.8192 706.5 68.1681 708.444 69.1537C710.44 70.1394 712.767 70.6322 715.428 70.6322C717.73 70.6322 719.648 70.295 721.183 69.6206C722.769 68.8943 723.945 67.9087 724.713 66.6636C725.531 65.4185 725.941 63.966 725.941 62.3059C725.941 60.5939 725.531 59.2192 724.713 58.1816C723.894 57.1441 722.718 56.2622 721.183 55.5359C719.648 54.8096 717.832 54.1092 715.735 53.4348C713.739 52.8123 711.718 52.086 709.672 51.256C707.626 50.4259 705.707 49.4143 703.917 48.2211C702.177 47.028 700.77 45.6013 699.696 43.9413C698.622 42.2293 698.085 40.1801 698.085 37.7938C698.085 35.4593 698.698 33.2804 699.926 31.2572C701.205 29.1821 703.047 27.522 705.452 26.2769C707.907 24.98 710.849 24.3315 714.276 24.3315C719.648 24.3315 723.664 25.8101 726.324 28.7671C728.985 31.7241 730.264 35.6408 730.161 40.5173H724.636C724.534 36.834 723.511 34.1883 721.567 32.5801C719.623 30.9719 717.09 30.1678 713.97 30.1678C711.36 30.1678 709.084 30.7903 707.14 32.0354C705.196 33.2285 704.224 35.1221 704.224 37.7159C704.224 38.8573 704.428 39.8689 704.838 40.7508C705.298 41.5808 706.014 42.359 706.986 43.0853C708.009 43.8116 709.365 44.5378 711.053 45.2641C712.793 45.9385 714.916 46.6908 717.423 47.5208C719.06 48.0396 720.722 48.6621 722.411 49.3884C724.15 50.1147 725.736 51.0225 727.169 52.112C728.652 53.2014 729.829 54.6021 730.699 56.314C731.619 57.9741 732.08 60.0752 732.08 62.6172C732.08 65.0554 731.492 67.338 730.315 69.465C729.189 71.5401 727.399 73.2261 724.943 74.5231C722.539 75.82 719.418 76.4685 715.581 76.4685C712.307 76.4685 709.493 76.0275 707.14 75.1456C704.838 74.2118 702.945 73.0186 701.461 71.566C699.977 70.1135 698.826 68.609 698.008 67.0527C697.24 65.4445 696.729 63.94 696.473 62.5394C696.217 61.1387 696.192 60.0492 696.396 59.2711Z" fill="url(#paint11_linear_9946_13393)"/>
<path d="M637.994 59.2711H643.52C643.673 61.4499 644.312 63.3953 645.438 65.1073C646.563 66.8192 648.098 68.1681 650.042 69.1537C652.038 70.1394 654.365 70.6322 657.026 70.6322C659.328 70.6322 661.246 70.295 662.781 69.6206C664.367 68.8943 665.544 67.9087 666.311 66.6636C667.129 65.4185 667.539 63.966 667.539 62.3059C667.539 60.5939 667.129 59.2192 666.311 58.1816C665.492 57.1441 664.316 56.2622 662.781 55.5359C661.246 54.8096 659.43 54.1092 657.332 53.4348C655.337 52.8123 653.316 52.086 651.27 51.256C649.224 50.4259 647.305 49.4143 645.515 48.2211C643.775 47.028 642.368 45.6013 641.294 43.9413C640.22 42.2293 639.683 40.1801 639.683 37.7938C639.683 35.4593 640.296 33.2804 641.524 31.2572C642.803 29.1821 644.645 27.522 647.05 26.2769C649.505 24.98 652.447 24.3315 655.874 24.3315C661.246 24.3315 665.262 25.8101 667.922 28.7671C670.583 31.7241 671.862 35.6408 671.759 40.5173H666.234C666.132 36.834 665.109 34.1883 663.165 32.5801C661.221 30.9719 658.688 30.1678 655.567 30.1678C652.958 30.1678 650.682 30.7903 648.738 32.0354C646.794 33.2285 645.822 35.1221 645.822 37.7159C645.822 38.8573 646.026 39.8689 646.436 40.7508C646.896 41.5808 647.612 42.359 648.584 43.0853C649.607 43.8116 650.963 44.5378 652.651 45.2641C654.391 45.9385 656.514 46.6908 659.021 47.5208C660.658 48.0396 662.32 48.6621 664.009 49.3884C665.748 50.1147 667.334 51.0225 668.767 52.112C670.25 53.2014 671.427 54.6021 672.297 56.314C673.217 57.9741 673.678 60.0752 673.678 62.6172C673.678 65.0554 673.09 67.338 671.913 69.465C670.787 71.5401 668.997 73.2261 666.541 74.5231C664.137 75.82 661.016 76.4685 657.179 76.4685C653.905 76.4685 651.091 76.0275 648.738 75.1456C646.436 74.2118 644.543 73.0186 643.059 71.566C641.575 70.1135 640.424 68.609 639.606 67.0527C638.838 65.4445 638.327 63.94 638.071 62.5394C637.815 61.1387 637.79 60.0492 637.994 59.2711Z" fill="url(#paint12_linear_9946_13393)"/>
<path d="M584.536 53.4423V69.8616H613.773V75.6978H578.396V25.1172H613.696V30.9534H584.536V47.6061H608.401V53.4423H584.536Z" fill="url(#paint13_linear_9946_13393)"/>
<path d="M551.422 58.8042C550.911 62.4356 549.683 65.5742 547.739 68.2199C545.795 70.8657 543.314 72.9149 540.295 74.3674C537.328 75.7681 534.003 76.4685 530.319 76.4685C526.892 76.4685 523.72 75.8719 520.804 74.6787C517.888 73.4336 515.33 71.6698 513.13 69.3872C510.981 67.1046 509.293 64.3551 508.065 61.1387C506.837 57.9222 506.223 54.3427 506.223 50.4C506.223 46.4054 506.837 42.8259 508.065 39.6614C509.293 36.4449 510.981 33.6954 513.13 31.4128C515.33 29.1302 517.888 27.3923 520.804 26.1991C523.72 24.9541 526.892 24.3315 530.319 24.3315C534.054 24.3315 537.405 25.0578 540.372 26.5104C543.391 27.9111 545.872 29.9603 547.816 32.6579C549.76 35.3036 550.988 38.4682 551.499 42.1515H545.821C545.104 39.5576 543.979 37.3787 542.444 35.6149C540.96 33.8511 539.17 32.5023 537.072 31.5685C534.975 30.6347 532.724 30.1678 530.319 30.1678C527.199 30.1678 524.257 30.9459 521.494 32.5023C518.783 34.0586 516.583 36.3412 514.895 39.3501C513.207 42.359 512.362 46.0423 512.362 50.4C512.362 54.7577 513.207 58.441 514.895 61.4499C516.583 64.4588 518.783 66.7414 521.494 68.2978C524.257 69.8541 527.199 70.6322 530.319 70.6322C532.724 70.6322 534.949 70.1913 536.996 69.3094C539.093 68.3756 540.884 67.0268 542.367 65.2629C543.902 63.4991 545.028 61.3462 545.744 58.8042H551.422Z" fill="url(#paint14_linear_9946_13393)"/>
<path d="M481.557 58.8042C481.046 62.4356 479.818 65.5742 477.874 68.2199C475.93 70.8657 473.449 72.9149 470.43 74.3674C467.463 75.7681 464.138 76.4685 460.454 76.4685C457.027 76.4685 453.855 75.8719 450.939 74.6787C448.023 73.4336 445.465 71.6698 443.265 69.3872C441.116 67.1046 439.428 64.3551 438.2 61.1387C436.972 57.9222 436.358 54.3427 436.358 50.4C436.358 46.4054 436.972 42.8259 438.2 39.6614C439.428 36.4449 441.116 33.6954 443.265 31.4128C445.465 29.1302 448.023 27.3923 450.939 26.1991C453.855 24.9541 457.027 24.3315 460.454 24.3315C464.189 24.3315 467.54 25.0578 470.507 26.5104C473.525 27.9111 476.007 29.9603 477.951 32.6579C479.895 35.3036 481.123 38.4682 481.634 42.1515H475.956C475.239 39.5576 474.114 37.3787 472.579 35.6149C471.095 33.8511 469.305 32.5023 467.207 31.5685C465.11 30.6347 462.859 30.1678 460.454 30.1678C457.334 30.1678 454.392 30.9459 451.629 32.5023C448.918 34.0586 446.718 36.3412 445.03 39.3501C443.342 42.359 442.497 46.0423 442.497 50.4C442.497 54.7577 443.342 58.441 445.03 61.4499C446.718 64.4588 448.918 66.7414 451.629 68.2978C454.392 69.8541 457.334 70.6322 460.454 70.6322C462.859 70.6322 465.084 70.1913 467.131 69.3094C469.228 68.3756 471.019 67.0268 472.502 65.2629C474.037 63.4991 475.163 61.3462 475.879 58.8042H481.557Z" fill="url(#paint15_linear_9946_13393)"/>
<path d="M381.229 62.469V56.6328H405.172V62.469H381.229ZM371.1 75.6978L390.054 25.1172H396.5L415.608 75.6978H409.009L392.357 29.9418H394.198L377.546 75.6978H371.1Z" fill="url(#paint16_linear_9946_13393)"/>
<path d="M278.643 25.1172H318.547V30.9534H278.643V25.1172ZM295.526 30.3309H301.665V75.6978H295.526V30.3309Z" fill="url(#paint17_linear_9946_13393)"/>
<path d="M226.797 53.4423V69.8616H256.035V75.6978H220.658V25.1172H255.958V30.9534H226.797V47.6061H250.663V53.4423H226.797Z" fill="url(#paint18_linear_9946_13393)"/>
<path d="M169.642 76.4685C166.01 76.4685 162.736 75.8459 159.819 74.6009C156.955 73.3558 154.499 71.6179 152.453 69.3872C150.406 67.1046 148.846 64.381 147.772 61.2165C146.697 58.0519 146.16 54.5761 146.16 50.7891C146.16 46.9501 146.748 43.4225 147.925 40.2061C149.102 36.9378 150.764 34.1364 152.913 31.8019C155.062 29.4155 157.594 27.5739 160.51 26.2769C163.477 24.98 166.726 24.3315 170.256 24.3315C174.093 24.3315 177.495 25.0838 180.462 26.5882C183.429 28.0408 185.834 30.1159 187.676 32.8135C189.517 35.4593 190.617 38.5719 190.975 42.1515H185.757C185.092 39.6614 184.018 37.5344 182.534 35.7705C181.051 33.9548 179.26 32.5801 177.162 31.6463C175.116 30.6606 172.814 30.1678 170.256 30.1678C166.726 30.1678 163.605 31.0756 160.894 32.8913C158.234 34.6552 156.136 37.0934 154.601 40.2061C153.066 43.3187 152.299 46.8464 152.299 50.7891C152.299 54.7318 152.99 58.2076 154.371 61.2165C155.752 64.1735 157.748 66.482 160.357 68.1421C162.966 69.8022 166.061 70.6322 169.642 70.6322C172.405 70.6322 174.809 70.0875 176.855 68.9981C178.953 67.9087 180.641 66.3264 181.92 64.2513C183.199 62.1243 184.069 59.5305 184.529 56.4697H188.29C187.471 63.1619 185.399 68.1681 182.074 71.4882C178.748 74.8084 174.604 76.4685 169.642 76.4685ZM187.062 75.6903C187.062 73.9783 187.087 72.0589 187.138 69.9319C187.241 67.753 187.369 65.5482 187.522 63.3175C187.676 61.0868 187.804 59.0895 187.906 57.3257H171.023V51.4894H193.047V75.6903H187.062Z" fill="url(#paint19_linear_9946_13393)"/>
<defs>
<linearGradient id="paint0_linear_9946_13393" x1="52.92" y1="0" x2="52.92" y2="100.8" gradientUnits="userSpaceOnUse">
<stop stop-color="#EBD4AB"/>
<stop offset="1" stop-color="#C09A6A"/>
</linearGradient>
<linearGradient id="paint1_linear_9946_13393" x1="52.92" y1="0" x2="52.92" y2="100.8" gradientUnits="userSpaceOnUse">
<stop stop-color="#EBD4AB"/>
<stop offset="1" stop-color="#C09A6A"/>
</linearGradient>
<linearGradient id="paint2_linear_9946_13393" x1="52.92" y1="0" x2="52.92" y2="100.8" gradientUnits="userSpaceOnUse">
<stop stop-color="#EBD4AB"/>
<stop offset="1" stop-color="#C09A6A"/>
</linearGradient>
<linearGradient id="paint3_linear_9946_13393" x1="52.92" y1="0" x2="52.92" y2="100.8" gradientUnits="userSpaceOnUse">
<stop stop-color="#EBD4AB"/>
<stop offset="1" stop-color="#C09A6A"/>
</linearGradient>
<linearGradient id="paint4_linear_9946_13393" x1="52.92" y1="0" x2="52.92" y2="100.8" gradientUnits="userSpaceOnUse">
<stop stop-color="#EBD4AB"/>
<stop offset="1" stop-color="#C09A6A"/>
</linearGradient>
<linearGradient id="paint5_linear_9946_13393" x1="52.92" y1="0" x2="52.92" y2="100.8" gradientUnits="userSpaceOnUse">
<stop stop-color="#EBD4AB"/>
<stop offset="1" stop-color="#C09A6A"/>
</linearGradient>
<linearGradient id="paint6_linear_9946_13393" x1="52.92" y1="0" x2="52.92" y2="100.8" gradientUnits="userSpaceOnUse">
<stop stop-color="#EBD4AB"/>
<stop offset="1" stop-color="#C09A6A"/>
</linearGradient>
<linearGradient id="paint7_linear_9946_13393" x1="52.92" y1="0" x2="52.92" y2="100.8" gradientUnits="userSpaceOnUse">
<stop stop-color="#EBD4AB"/>
<stop offset="1" stop-color="#C09A6A"/>
</linearGradient>
<linearGradient id="paint8_linear_9946_13393" x1="52.92" y1="0" x2="52.92" y2="100.8" gradientUnits="userSpaceOnUse">
<stop stop-color="#EBD4AB"/>
<stop offset="1" stop-color="#C09A6A"/>
</linearGradient>
<linearGradient id="paint9_linear_9946_13393" x1="52.92" y1="0" x2="52.92" y2="100.8" gradientUnits="userSpaceOnUse">
<stop stop-color="#EBD4AB"/>
<stop offset="1" stop-color="#C09A6A"/>
</linearGradient>
<linearGradient id="paint10_linear_9946_13393" x1="52.92" y1="0" x2="52.92" y2="100.8" gradientUnits="userSpaceOnUse">
<stop stop-color="#EBD4AB"/>
<stop offset="1" stop-color="#C09A6A"/>
</linearGradient>
<linearGradient id="paint11_linear_9946_13393" x1="714.17" y1="24.3315" x2="714.17" y2="76.4685" gradientUnits="userSpaceOnUse">
<stop stop-color="#EBD4AB"/>
<stop offset="1" stop-color="#C09A6A"/>
</linearGradient>
<linearGradient id="paint12_linear_9946_13393" x1="655.768" y1="24.3315" x2="655.768" y2="76.4685" gradientUnits="userSpaceOnUse">
<stop stop-color="#EBD4AB"/>
<stop offset="1" stop-color="#C09A6A"/>
</linearGradient>
<linearGradient id="paint13_linear_9946_13393" x1="596.085" y1="25.1172" x2="596.085" y2="75.6978" gradientUnits="userSpaceOnUse">
<stop stop-color="#EBD4AB"/>
<stop offset="1" stop-color="#C09A6A"/>
</linearGradient>
<linearGradient id="paint14_linear_9946_13393" x1="528.861" y1="24.3315" x2="528.861" y2="76.4685" gradientUnits="userSpaceOnUse">
<stop stop-color="#EBD4AB"/>
<stop offset="1" stop-color="#C09A6A"/>
</linearGradient>
<linearGradient id="paint15_linear_9946_13393" x1="458.996" y1="24.3315" x2="458.996" y2="76.4685" gradientUnits="userSpaceOnUse">
<stop stop-color="#EBD4AB"/>
<stop offset="1" stop-color="#C09A6A"/>
</linearGradient>
<linearGradient id="paint16_linear_9946_13393" x1="393.354" y1="25.1172" x2="393.354" y2="75.6978" gradientUnits="userSpaceOnUse">
<stop stop-color="#EBD4AB"/>
<stop offset="1" stop-color="#C09A6A"/>
</linearGradient>
<linearGradient id="paint17_linear_9946_13393" x1="298.595" y1="25.1172" x2="298.595" y2="75.6978" gradientUnits="userSpaceOnUse">
<stop stop-color="#EBD4AB"/>
<stop offset="1" stop-color="#C09A6A"/>
</linearGradient>
<linearGradient id="paint18_linear_9946_13393" x1="238.347" y1="25.1172" x2="238.347" y2="75.6978" gradientUnits="userSpaceOnUse">
<stop stop-color="#EBD4AB"/>
<stop offset="1" stop-color="#C09A6A"/>
</linearGradient>
<linearGradient id="paint19_linear_9946_13393" x1="169.604" y1="24.3315" x2="169.604" y2="76.4685" gradientUnits="userSpaceOnUse">
<stop stop-color="#EBD4AB"/>
<stop offset="1" stop-color="#C09A6A"/>
</linearGradient>
</defs>
</svg>
